<?xml version="1.0" standalone="no"?>
<!DOCTYPE svg PUBLIC "-//W3C//DTD SVG 20010904//EN"
 "http://www.w3.org/TR/2001/REC-SVG-20010904/DTD/svg10.dtd">
<svg version="1.0" xmlns="http://www.w3.org/2000/svg"
 width="946.000000pt" height="988.000000pt" viewBox="0 0 946.000000 988.000000"
 preserveAspectRatio="xMidYMid meet">

<g transform="translate(0.000000,988.000000) scale(0.100000,-0.100000)"
fill="#000000" stroke="none">
<path d="M4348 9674 c-145 -109 -555 -416 -913 -684 -357 -268 -810 -605
-1005 -750 -195 -145 -359 -267 -364 -271 -5 -5 -4 -15 4 -24 11 -14 591 -446
628 -469 8 -5 53 22 127 74 126 91 153 116 139 129 -5 4 -90 68 -188 140
l-179 133 24 23 c35 33 1742 1306 1812 1350 l27 17 0 -485 0 -485 -177 -134
c-98 -74 -540 -404 -983 -733 -442 -329 -826 -615 -853 -636 -27 -22 -53 -39
-58 -39 -5 0 -9 102 -9 239 l0 240 -157 120 c-87 67 -161 121 -165 121 -5 0
-8 -220 -8 -489 l0 -488 248 -185 c136 -102 675 -504 1197 -893 523 -390 987
-737 1033 -772 45 -35 89 -63 96 -63 8 0 520 377 1138 838 1422 1060 1428
1065 1425 1077 -6 17 -604 467 -639 480 -10 4 -59 -27 -136 -84 -66 -49 -122
-93 -125 -99 -9 -13 29 -45 206 -176 87 -64 155 -121 152 -126 -6 -10 -1472
-1110 -1716 -1288 -69 -51 -129 -92 -133 -92 -3 0 -6 217 -6 483 l0 482 109
80 c60 44 295 220 523 391 613 461 1424 1063 1442 1070 14 5 16 -20 16 -238
l0 -245 58 -45 c56 -44 225 -167 250 -182 9 -6 12 93 12 483 l0 489 -187 139
c-104 77 -651 486 -1218 909 -1090 815 -1156 864 -1173 864 -6 0 -129 -88
-274 -196z m650 -477 c629 -465 1651 -1234 1651 -1242 0 -5 -70 -62 -156 -125
-86 -63 -230 -170 -321 -237 -102 -76 -169 -120 -176 -115 -6 5 -159 118 -341
252 -610 451 -760 562 -812 607 l-53 45 0 479 c0 263 3 479 8 479 4 0 94 -64
200 -143z m187 -1522 c237 -178 456 -343 488 -368 l58 -45 -413 -309 c-393
-294 -659 -491 -685 -506 -7 -4 -232 157 -555 399 -299 224 -545 409 -547 411
-10 8 66 68 568 442 l523 391 67 -47 c36 -25 260 -191 496 -368z m-1307 -1084
l582 -435 0 -483 c0 -266 -4 -483 -8 -483 -4 0 -165 118 -358 262 -192 144
-596 446 -899 671 -302 225 -560 420 -573 432 l-24 22 323 241 c322 240 324
241 349 225 14 -9 287 -212 608 -452z"/>
<path d="M1708 3715 c-54 -30 -53 -19 -58 -622 -4 -404 -8 -565 -16 -574 -18
-17 -41 -5 -150 72 -177 126 -311 175 -504 186 -180 9 -377 -38 -536 -128
-133 -76 -290 -242 -362 -384 -30 -61 -72 -201 -72 -244 0 -48 25 -72 83 -78
60 -7 103 17 128 70 10 23 19 48 19 56 0 31 82 179 130 238 57 69 168 158 246
197 165 82 468 81 631 -3 188 -96 353 -311 388 -506 31 -173 14 -311 -55 -460
-90 -193 -237 -320 -450 -387 -108 -33 -302 -33 -410 0 -130 41 -206 87 -305
187 -97 96 -156 193 -189 306 -24 86 -43 104 -108 104 -76 0 -108 -23 -108
-76 0 -53 42 -176 91 -267 127 -238 341 -403 605 -469 105 -26 352 -23 459 5
284 76 528 297 636 575 58 152 60 180 57 1216 l-3 941 -26 25 c-31 32 -85 40
-121 20z"/>
<path d="M4339 3702 l-34 -30 -3 -899 c-4 -1004 0 -1100 50 -1238 41 -111 79
-179 153 -273 189 -239 466 -364 775 -349 349 17 631 200 794 516 49 94 76
182 76 243 0 44 -26 67 -88 75 -70 9 -95 -13 -130 -117 -102 -310 -376 -510
-698 -510 -226 0 -438 107 -580 293 -94 124 -130 225 -140 395 -13 222 69 422
238 576 124 113 272 175 443 183 224 12 419 -67 571 -230 79 -84 126 -163 155
-260 18 -61 31 -85 58 -109 30 -27 40 -30 83 -26 60 6 88 30 88 76 0 81 -63
249 -131 349 -18 26 -64 81 -103 122 -254 264 -630 356 -981 240 -109 -36
-173 -72 -283 -155 -46 -35 -92 -64 -103 -64 -12 0 -24 11 -30 28 -8 18 -12
210 -13 579 l-1 553 -25 24 c-14 15 -42 28 -66 32 -37 5 -45 3 -75 -24z"/>
<path d="M8920 3252 c-109 -56 -256 -146 -287 -178 -44 -43 -45 -89 -4 -133
22 -23 38 -31 65 -31 45 0 67 10 204 92 62 37 118 68 125 68 7 0 76 -36 154
-80 156 -88 199 -99 242 -59 56 52 47 120 -22 168 -78 53 -252 153 -291 167
-62 22 -124 17 -186 -14z"/>
<path d="M2878 2759 c-274 -49 -520 -235 -648 -489 -81 -160 -101 -268 -59
-306 29 -26 119 -26 147 0 12 10 39 66 62 125 75 195 186 319 365 407 200 99
427 99 630 1 104 -51 174 -107 250 -202 110 -138 158 -276 158 -450 1 -226
-93 -422 -271 -567 -144 -117 -289 -164 -480 -155 -147 6 -251 37 -355 107
-164 110 -264 240 -317 412 -26 84 -47 103 -115 103 -99 0 -118 -53 -70 -199
98 -299 354 -534 671 -613 106 -26 344 -24 450 5 162 44 290 118 418 241 139
135 211 258 257 441 33 136 32 325 -4 462 -46 175 -129 311 -270 444 -144 136
-290 209 -477 239 -122 19 -209 18 -342 -6z"/>
<path d="M6458 2761 c-17 -14 -30 -37 -35 -64 -5 -23 -6 -266 -2 -542 6 -468
8 -504 28 -570 31 -104 81 -201 149 -291 135 -179 288 -286 498 -350 81 -25
103 -28 249 -27 185 0 262 16 402 82 269 129 446 341 525 629 20 72 21 107 26
563 3 417 2 490 -11 521 -21 50 -57 72 -108 65 -53 -7 -76 -29 -85 -80 -4 -23
-8 -247 -8 -497 -1 -440 -2 -458 -24 -534 -40 -142 -86 -220 -187 -321 -49
-49 -116 -105 -148 -124 -216 -127 -512 -133 -722 -16 -183 103 -318 281 -361
480 -15 68 -19 153 -23 562 -6 466 -7 483 -26 503 -11 11 -40 22 -65 26 -37 5
-50 2 -72 -15z"/>
<path d="M8991 2765 c-117 -33 -225 -104 -292 -194 -55 -74 -78 -129 -96 -229
-28 -159 22 -315 137 -433 33 -34 60 -63 60 -66 0 -3 -20 -23 -44 -44 -116
-102 -176 -274 -155 -444 23 -185 180 -368 367 -425 69 -22 155 -26 196 -10
38 14 68 67 62 110 -8 53 -43 77 -123 85 -96 10 -155 38 -212 101 -57 62 -84
132 -84 214 0 160 105 280 266 302 116 16 157 45 157 114 0 67 -40 96 -147
108 -162 16 -276 146 -276 312 0 92 33 164 104 228 53 47 108 70 198 81 71 8
90 19 107 62 19 43 11 83 -22 114 -31 29 -124 36 -203 14z"/>
<path d="M1435 500 c-48 -11 -74 -28 -104 -71 -80 -110 -61 -312 37 -387 30
-23 45 -27 101 -27 82 0 120 24 158 98 95 188 -23 426 -192 387z m115 -58 c76
-55 95 -261 32 -337 -48 -58 -126 -73 -187 -35 -53 33 -70 80 -70 191 0 88 2
99 28 138 16 23 43 49 60 57 39 17 102 11 137 -14z"/>
<path d="M40 256 c0 -212 2 -246 15 -246 13 0 15 30 16 203 l1 202 76 -158
c51 -105 81 -157 90 -155 8 2 47 73 86 158 l71 155 3 -203 c2 -170 5 -202 17
-202 13 0 15 35 15 246 0 308 -1 309 -113 67 l-80 -172 -82 172 c-52 109 -88
173 -98 175 -16 3 -17 -18 -17 -242z"/>
<path d="M2442 488 c3 -7 40 -118 84 -246 59 -174 83 -232 94 -230 10 2 43 86
97 246 73 215 80 242 63 242 -21 0 -29 -20 -105 -250 -26 -80 -50 -148 -54
-152 -4 -4 -37 85 -75 197 -58 177 -70 205 -88 205 -12 0 -18 -5 -16 -12z"/>
<path d="M3610 255 l0 -245 125 0 c118 0 125 1 125 20 0 19 -7 20 -105 20
l-105 0 0 95 0 95 85 0 c78 0 85 2 85 20 0 18 -7 20 -85 20 l-85 0 0 90 0 90
105 0 c98 0 105 1 105 20 0 19 -7 20 -125 20 l-125 0 0 -245z"/>
<path d="M4700 255 l0 -245 115 0 c108 0 115 1 115 20 0 19 -7 20 -95 20 l-95
0 0 225 c0 218 -1 225 -20 225 -19 0 -20 -7 -20 -245z"/>
<path d="M5857 493 c-14 -25 -158 -475 -153 -480 15 -15 33 11 54 76 l23 71
94 0 93 0 24 -72 c16 -47 31 -74 41 -76 9 -2 17 0 17 5 0 5 -35 114 -78 243
-55 163 -84 236 -94 238 -9 2 -18 -1 -21 -5z m93 -290 c0 -9 -21 -13 -75 -13
-52 0 -75 4 -75 12 0 7 17 63 37 125 l38 114 37 -113 c21 -62 38 -118 38 -125z"/>
<path d="M6880 255 c0 -209 2 -245 15 -245 11 0 15 21 17 107 l3 108 31 3 c29
3 34 -3 102 -107 43 -68 78 -111 88 -111 22 0 16 13 -56 124 -33 51 -60 95
-60 97 0 3 16 13 34 23 88 47 87 189 0 231 -19 9 -60 15 -103 15 l-71 0 0
-245z m174 184 c21 -17 26 -29 26 -68 0 -76 -45 -116 -126 -109 l-39 3 -3 98
-3 97 59 0 c45 0 66 -5 86 -21z"/>
<path d="M7990 255 c0 -238 1 -245 20 -245 19 0 20 7 20 245 0 238 -1 245 -20
245 -19 0 -20 -7 -20 -245z"/>
<path d="M9017 493 c-14 -25 -158 -475 -153 -480 15 -15 33 11 54 76 l23 71
94 0 93 0 24 -72 c16 -47 31 -74 41 -76 9 -2 17 0 17 5 0 5 -35 114 -78 243
-55 163 -84 236 -94 238 -9 2 -18 -1 -21 -5z m93 -290 c0 -9 -21 -13 -75 -13
-52 0 -75 4 -75 12 0 7 17 63 37 125 l38 114 37 -113 c21 -62 38 -118 38 -125z"/>
</g>
</svg>
